<svg width="30" height="32" viewBox="0 0 30 32" version="1.1" xmlns="http://www.w3.org/2000/svg" xmlns:xlink="http://www.w3.org/1999/xlink">
<title>Download 2</title>
<desc>Created using Figma</desc>
<g id="Canvas" transform="translate(938 1911)">
<g id="Download 2">
<g id="Download">
<mask id="mask0_outline_ins">
<use xlink:href="#path0_fill" fill="white" transform="translate(-938 -1911)"/>
</mask>
<g mask="url(#mask0_outline_ins)">
<use xlink:href="#path1_stroke_2x" transform="translate(-938 -1911)" fill="#C8C8C8"/>
</g>
</g>
</g>
</g>
<defs>
<path id="path0_fill" fill-rule="evenodd" d="M 16.4142 27.4142L 29.1422 14.6863C 29.9232 13.9053 29.9232 12.6389 29.1422 11.8579C 28.3611 11.0768 27.0947 11.0768 26.3137 11.8579L 17 21.1716L 17 0L 13 0L 13 21.1716L 3.68628 11.8579C 2.90527 11.0768 1.63892 11.0768 0.857849 11.8579C 0.0768433 12.6389 0.0768433 13.9053 0.857849 14.6863L 13.5858 27.4142C 13.9735 27.8019 14.4808 27.9972 14.9889 28L 2 28C 0.895447 28 0 28.8954 0 30C 0 31.1046 0.895447 32 2 32L 28 32C 29.1046 32 30 31.1046 30 30C 30 28.8954 29.1046 28 28 28L 15.0111 28C 15.5192 27.9972 16.0265 27.8019 16.4142 27.4142Z"/>
<path id="path1_stroke_2x" d="M 29.1422 14.6863L 31.9706 17.5147L 31.9706 17.5147L 29.1422 14.6863ZM 16.4142 27.4142L 13.5858 24.5858L 13.5858 24.5858L 16.4142 27.4142ZM 29.1422 11.8579L 26.3136 14.6862L 26.3137 14.6863L 29.1422 11.8579ZM 26.3137 11.8579L 29.1421 14.6863L 29.1424 14.6861L 26.3137 11.8579ZM 17 21.1716L 13 21.1716L 13 30.8285L 19.8284 24.0001L 17 21.1716ZM 17 0L 21 0L 21 -4L 17 -4L 17 0ZM 13 0L 13 -4L 9 -4L 9 0L 13 0ZM 13 21.1716L 10.1716 24.0001L 17 30.8285L 17 21.1716L 13 21.1716ZM 3.68628 11.8579L 0.857631 14.6861L 0.857852 14.6863L 3.68628 11.8579ZM 0.857849 11.8579L 3.68628 14.6863L 3.68639 14.6862L 0.857849 11.8579ZM 0.857849 14.6863L -1.97058 17.5147L -1.97057 17.5147L 0.857849 14.6863ZM 13.5858 27.4142L 16.4142 24.5858L 16.4142 24.5858L 13.5858 27.4142ZM 14.9889 28L 14.9889 32L 15.011 24.0001L 14.9889 28ZM 15.0111 28L 14.989 24.0001L 15.0111 32L 15.0111 28ZM 26.3137 11.8578L 13.5858 24.5858L 19.2426 30.2426L 31.9706 17.5147L 26.3137 11.8578ZM 26.3137 14.6863C 25.5326 13.9052 25.5326 12.6389 26.3137 11.8579L 31.9706 17.5147C 34.3137 15.1716 34.3137 11.3726 31.9706 9.02948L 26.3137 14.6863ZM 29.1424 14.6861C 28.3612 15.4674 27.0946 15.4673 26.3136 14.6862L 31.9707 9.02959C 29.6276 6.68628 25.8283 6.68612 23.4851 9.0297L 29.1424 14.6861ZM 19.8284 24.0001L 29.1421 14.6863L 23.4853 9.02948L 14.1716 18.3432L 19.8284 24.0001ZM 13 0L 13 21.1716L 21 21.1716L 21 0L 13 0ZM 13 4L 17 4L 17 -4L 13 -4L 13 4ZM 17 21.1716L 17 0L 9 0L 9 21.1716L 17 21.1716ZM 0.857852 14.6863L 10.1716 24.0001L 15.8284 18.3432L 6.51471 9.02948L 0.857852 14.6863ZM 3.68639 14.6862C 2.90539 15.4673 1.63883 15.4674 0.857631 14.6861L 6.51493 9.0297C 4.17171 6.68612 0.37244 6.68628 -1.97069 9.02959L 3.68639 14.6862ZM 3.68628 11.8579C 4.46737 12.6389 4.46737 13.9052 3.68628 14.6863L -1.97058 9.02948C -4.31368 11.3726 -4.31368 15.1716 -1.97058 17.5147L 3.68628 11.8579ZM 16.4142 24.5858L 3.68627 11.8578L -1.97057 17.5147L 10.7574 30.2426L 16.4142 24.5858ZM 15.011 24.0001C 15.5135 24.0028 16.0277 24.1992 16.4142 24.5858L 10.7574 30.2426C 11.9194 31.4046 13.448 31.9915 14.9668 31.9999L 15.011 24.0001ZM 2 32L 14.9889 32L 14.9889 24L 2 24L 2 32ZM 4 30C 4 31.1046 3.10451 32 2 32L 2 24C -1.31361 24 -4 26.6862 -4 30L 4 30ZM 2 28C 3.10451 28 4 28.8954 4 30L -4 30C -4 33.3138 -1.31361 36 2 36L 2 28ZM 28 28L 2 28L 2 36L 28 36L 28 28ZM 26 30C 26 28.8954 26.8955 28 28 28L 28 36C 31.3136 36 34 33.3138 34 30L 26 30ZM 28 32C 26.8955 32 26 31.1046 26 30L 34 30C 34 26.6862 31.3136 24 28 24L 28 32ZM 15.0111 32L 28 32L 28 24L 15.0111 24L 15.0111 32ZM 13.5858 24.5858C 13.9723 24.1992 14.4865 24.0028 14.989 24.0001L 15.0332 31.9999C 16.552 31.9915 18.0806 31.4046 19.2426 30.2426L 13.5858 24.5858Z"/>
</defs>
</svg>
