<svg width="37" height="37" viewBox="0 0 37 37" version="1.1" xmlns="http://www.w3.org/2000/svg" xmlns:xlink="http://www.w3.org/1999/xlink">
<title>Star 2</title>
<desc>Created using Figma</desc>
<g id="Canvas" transform="translate(896 1912)">
<g id="Star 2">
<g id="Star">
<mask id="mask0_outline_ins">
<use xlink:href="#path0_fill" fill="white" transform="translate(-896 -1912)"/>
</mask>
<g mask="url(#mask0_outline_ins)">
<use xlink:href="#path1_stroke_2x" transform="translate(-896 -1912)" fill="#C8C8C8"/>
</g>
</g>
</g>
</g>
<defs>
<path id="path0_fill" d="M 17.6288 1.54557C 18.0114 0.86693 18.9886 0.86693 19.3712 1.54557L 24.1472 10.0192C 24.2899 10.2724 24.5357 10.451 24.8206 10.5084L 34.3554 12.4323C 35.119 12.5864 35.421 13.5158 34.8938 14.0893L 28.3108 21.2501C 28.1141 21.4641 28.0202 21.753 28.0536 22.0417L 29.1703 31.7044C 29.2598 32.4782 28.4691 33.0527 27.7608 32.7285L 18.9162 28.6805C 18.6519 28.5595 18.3481 28.5595 18.0838 28.6805L 9.23921 32.7285C 8.53086 33.0527 7.74023 32.4782 7.82966 31.7044L 8.9464 22.0417C 8.97977 21.753 8.88589 21.4641 8.6892 21.2501L 2.10618 14.0893C 1.57896 13.5158 1.88095 12.5864 2.64458 12.4323L 12.1794 10.5084C 12.4643 10.451 12.7101 10.2724 12.8528 10.0192L 17.6288 1.54557Z"/>
<path id="path1_stroke_2x" d="M 19.3712 1.54557L 15.8865 3.50964L 19.3712 1.54557ZM 24.1472 10.0192L 20.6626 11.9833L 24.1472 10.0192ZM 34.3554 12.4323L 35.1466 8.5113L 34.3554 12.4323ZM 28.3108 21.2501L 31.2555 23.9573L 28.3108 21.2501ZM 29.1703 31.7044L 33.1439 31.2451L 29.1703 31.7044ZM 18.9162 28.6805L 20.5808 25.0433L 18.9162 28.6805ZM 9.23921 32.7285L 10.9039 36.3656L 9.23921 32.7285ZM 8.9464 22.0417L 4.97285 21.5825L 8.9464 22.0417ZM 2.10618 14.0893L -0.838556 16.7964L 2.10618 14.0893ZM 17.6288 1.54557L 21.1135 3.50964L 17.6288 1.54557ZM 24.8206 10.5084L 24.0295 14.4294L 24.8206 10.5084ZM 34.8938 14.0893L 31.9491 11.3822L 34.8938 14.0893ZM 28.0536 22.0417L 24.08 22.501L 28.0536 22.0417ZM 27.7608 32.7285L 26.0961 36.3656L 27.7608 32.7285ZM 18.0838 28.6805L 16.4192 25.0433L 18.0838 28.6805ZM 7.82966 31.7044L 3.85611 31.2451L 7.82966 31.7044ZM 8.6892 21.2501L 5.74446 23.9573L 8.6892 21.2501ZM 2.64458 12.4323L 1.85345 8.5113L 2.64458 12.4323ZM 12.8528 10.0192L 9.36815 8.05515L 12.8528 10.0192ZM 15.8865 3.50964L 20.6626 11.9833L 27.6318 8.05515L 22.8558 -0.418492L 15.8865 3.50964ZM 24.0295 14.4294L 33.5643 16.3533L 35.1466 8.5113L 25.6117 6.58746L 24.0295 14.4294ZM 31.9491 11.3822L 25.3661 18.543L 31.2555 23.9573L 37.8386 16.7964L 31.9491 11.3822ZM 24.08 22.501L 25.1968 32.1636L 33.1439 31.2451L 32.0271 21.5825L 24.08 22.501ZM 29.4254 29.0913L 20.5808 25.0433L 17.2515 32.3176L 26.0961 36.3656L 29.4254 29.0913ZM 16.4192 25.0433L 7.57456 29.0913L 10.9039 36.3656L 19.7485 32.3176L 16.4192 25.0433ZM 11.8032 32.1636L 12.92 22.501L 4.97285 21.5825L 3.85611 31.2451L 11.8032 32.1636ZM 11.6339 18.543L 5.05092 11.3822L -0.838556 16.7964L 5.74446 23.9573L 11.6339 18.543ZM 3.43572 16.3533L 12.9705 14.4294L 11.3883 6.58746L 1.85345 8.5113L 3.43572 16.3533ZM 16.3374 11.9833L 21.1135 3.50964L 14.1442 -0.418492L 9.36815 8.05515L 16.3374 11.9833ZM 22.8558 -0.418492C 20.9432 -3.81171 16.0568 -3.81171 14.1442 -0.418492L 21.1135 3.50964C 19.9659 5.54557 17.0341 5.54557 15.8865 3.50964L 22.8558 -0.418492ZM 20.6626 11.9833C 21.3761 13.2492 22.6051 14.142 24.0295 14.4294L 25.6117 6.58746C 26.4664 6.7599 27.2037 7.29562 27.6318 8.05515L 20.6626 11.9833ZM 33.5643 16.3533C 31.2734 15.891 30.3674 13.1027 31.9491 11.3822L 37.8386 16.7964C 40.4747 13.9289 38.9647 9.28169 35.1466 8.5113L 33.5643 16.3533ZM 25.3661 18.543C 24.3826 19.6128 23.9132 21.0575 24.08 22.501L 32.0271 21.5825C 32.1272 22.4486 31.8456 23.3154 31.2555 23.9573L 25.3661 18.543ZM 25.1968 32.1636C 24.9285 29.842 27.3004 28.1187 29.4254 29.0913L 26.0961 36.3656C 29.6379 37.9866 33.5911 35.1145 33.1439 31.2451L 25.1968 32.1636ZM 20.5808 25.0433C 19.2595 24.4386 17.7405 24.4386 16.4192 25.0433L 19.7485 32.3176C 18.9557 32.6805 18.0443 32.6805 17.2515 32.3176L 20.5808 25.0433ZM 7.57456 29.0913C 9.69963 28.1187 12.0715 29.842 11.8032 32.1636L 3.85611 31.2451C 3.40892 35.1145 7.36208 37.9866 10.9039 36.3656L 7.57456 29.0913ZM 12.92 22.501C 13.0868 21.0575 12.6174 19.6128 11.6339 18.543L 5.74446 23.9573C 5.15439 23.3154 4.87275 22.4486 4.97285 21.5825L 12.92 22.501ZM 5.05092 11.3822C 6.6326 13.1027 5.72662 15.891 3.43572 16.3533L 1.85345 8.5113C -1.96471 9.28169 -3.47469 13.9289 -0.838556 16.7964L 5.05092 11.3822ZM 12.9705 14.4294C 14.3949 14.142 15.6239 13.2492 16.3374 11.9833L 9.36815 8.05515C 9.79626 7.29562 10.5336 6.7599 11.3883 6.58746L 12.9705 14.4294Z"/>
</defs>
</svg>
