<svg width="30" height="34" viewBox="0 0 30 34" version="1.1" xmlns="http://www.w3.org/2000/svg" xmlns:xlink="http://www.w3.org/1999/xlink">
<title>Trash Can 2</title>
<desc>Created using Figma</desc>
<g id="Canvas" transform="translate(978 1913)">
<g id="Trash Can 2">
<g id="Trash Can">
<mask id="mask0_outline_ins">
<use xlink:href="#path0_fill" fill="white" transform="translate(-978 -1913)"/>
</mask>
<g mask="url(#mask0_outline_ins)">
<use xlink:href="#path1_stroke_2x" transform="translate(-978 -1913)" fill="#C8C8C8"/>
</g>
</g>
</g>
</g>
<defs>
<path id="path0_fill" fill-rule="evenodd" d="M 11 0C 10.4477 0 10 0.447754 10 1L 10 2L 3 2C 1.34314 2 0 3.34314 0 5C 0 6.30627 0.834778 7.41748 2 7.82935L 2 8L 2 29C 2 31.7615 4.23859 34 7 34L 24 34C 26.2092 34 28 32.2091 28 30L 28 8L 28 7.82935C 29.1652 7.41748 30 6.30627 30 5C 30 3.34314 28.6569 2 27 2L 20 2L 20 1C 20 0.447754 19.5523 0 19 0L 11 0ZM 25 8L 23 8L 23 25.5C 23 26.3284 22.3284 27 21.5 27C 20.6716 27 20 26.3284 20 25.5L 20 8L 16.5 8L 16.5 26.5C 16.5 27.3284 15.8284 28 15 28C 14.1716 28 13.5 27.3284 13.5 26.5L 13.5 8L 10 8L 10 25.5C 10 26.3284 9.32843 27 8.5 27C 7.67157 27 7 26.3284 7 25.5L 7 8L 5 8L 5 29C 5 30.1046 5.89545 31 7 31L 24 31C 24.5523 31 25 30.5522 25 30L 25 8Z"/>
<path id="path1_stroke_2x" d="M 10 2L 10 6L 14 6L 14 2L 10 2ZM 2 7.82935L 6 7.82935L 6 5.00068L 3.33304 4.058L 2 7.82935ZM 28 7.82935L 26.667 4.058L 24 5.00068L 24 7.82935L 28 7.82935ZM 20 2L 16 2L 16 6L 20 6L 20 2ZM 25 8L 29 8L 29 4L 25 4L 25 8ZM 23 8L 23 4L 19 4L 19 8L 23 8ZM 20 8L 24 8L 24 4L 20 4L 20 8ZM 16.5 8L 16.5 4L 12.5 4L 12.5 8L 16.5 8ZM 13.5 8L 17.5 8L 17.5 4L 13.5 4L 13.5 8ZM 10 8L 10 4L 6 4L 6 8L 10 8ZM 7 8L 11 8L 11 4L 7 4L 7 8ZM 5 8L 5 4L 1 4L 1 8L 5 8ZM 14 1C 14 2.65673 12.657 4 11 4L 11 -4C 8.23839 -4 6 -1.76123 6 1L 14 1ZM 14 2L 14 1L 6 1L 6 2L 14 2ZM 3 6L 10 6L 10 -2L 3 -2L 3 6ZM 4 5C 4 5.55228 3.55228 6 3 6L 3 -2C -0.865999 -2 -4 1.134 -4 5L 4 5ZM 3.33304 4.058C 3.71599 4.19336 4 4.55842 4 5L -4 5C -4 8.05413 -2.04643 10.6416 0.666963 11.6007L 3.33304 4.058ZM -2 7.82935L -2 8L 6 8L 6 7.82935L -2 7.82935ZM -2 8L -2 29L 6 29L 6 8L -2 8ZM -2 29C -2 33.9706 2.02948 38 7 38L 7 30C 6.44769 30 6 29.5523 6 29L -2 29ZM 7 38L 24 38L 24 30L 7 30L 7 38ZM 24 38C 28.4183 38 32 34.4182 32 30L 24 30L 24 38ZM 32 30L 32 8L 24 8L 24 30L 32 30ZM 32 8L 32 7.82935L 24 7.82935L 24 8L 32 8ZM 26 5C 26 4.55842 26.284 4.19336 26.667 4.058L 29.333 11.6007C 32.0464 10.6416 34 8.05413 34 5L 26 5ZM 27 6C 26.4477 6 26 5.55228 26 5L 34 5C 34 1.134 30.866 -2 27 -2L 27 6ZM 20 6L 27 6L 27 -2L 20 -2L 20 6ZM 16 1L 16 2L 24 2L 24 1L 16 1ZM 19 4C 17.343 4 16 2.65673 16 1L 24 1C 24 -1.76123 21.7616 -4 19 -4L 19 4ZM 11 4L 19 4L 19 -4L 11 -4L 11 4ZM 25 4L 23 4L 23 12L 25 12L 25 4ZM 19 8L 19 25.5L 27 25.5L 27 8L 19 8ZM 19 25.5C 19 24.1193 20.1192 23 21.5 23L 21.5 31C 24.5377 31 27 28.5374 27 25.5L 19 25.5ZM 21.5 23C 22.8808 23 24 24.1193 24 25.5L 16 25.5C 16 28.5374 18.4623 31 21.5 31L 21.5 23ZM 24 25.5L 24 8L 16 8L 16 25.5L 24 25.5ZM 20 4L 16.5 4L 16.5 12L 20 12L 20 4ZM 12.5 8L 12.5 26.5L 20.5 26.5L 20.5 8L 12.5 8ZM 12.5 26.5C 12.5 25.1193 13.6192 24 15 24L 15 32C 18.0377 32 20.5 29.5374 20.5 26.5L 12.5 26.5ZM 15 24C 16.3808 24 17.5 25.1193 17.5 26.5L 9.5 26.5C 9.5 29.5374 11.9623 32 15 32L 15 24ZM 17.5 26.5L 17.5 8L 9.5 8L 9.5 26.5L 17.5 26.5ZM 13.5 4L 10 4L 10 12L 13.5 12L 13.5 4ZM 6 8L 6 25.5L 14 25.5L 14 8L 6 8ZM 6 25.5C 6 24.1193 7.11919 23 8.5 23L 8.5 31C 11.5377 31 14 28.5374 14 25.5L 6 25.5ZM 8.5 23C 9.88081 23 11 24.1193 11 25.5L 3 25.5C 3 28.5374 5.46232 31 8.5 31L 8.5 23ZM 11 25.5L 11 8L 3 8L 3 25.5L 11 25.5ZM 7 4L 5 4L 5 12L 7 12L 7 4ZM 1 8L 1 29L 9 29L 9 8L 1 8ZM 1 29C 1 32.3138 3.68639 35 7 35L 7 27C 8.10451 27 9 27.8954 9 29L 1 29ZM 7 35L 24 35L 24 27L 7 27L 7 35ZM 24 35C 26.7616 35 29 32.7612 29 30L 21 30C 21 28.3433 22.343 27 24 27L 24 35ZM 29 30L 29 8L 21 8L 21 30L 29 30Z"/>
</defs>
</svg>
